# Blender 4.2.0
# www.blender.org
mtllib Devicelow.mtl
o lowpoly
v -0.967207 -0.224872 0.967207
v -0.966890 -0.224681 0.998894
v -0.998784 -0.224681 0.966817
v -0.967207 -0.224872 0.990395
v -0.986140 -0.224872 0.986140
v -0.988445 -0.224681 0.989255
v -0.990395 -0.224872 0.967207
v -0.963172 0.224071 0.992885
v -0.929009 0.233969 0.960987
v -0.960820 0.233811 0.927234
v -0.989720 0.223850 0.962842
v -0.946446 0.228623 0.980203
v -0.969626 0.228088 0.970408
v -0.947402 0.235014 0.945407
v -0.979439 0.228332 0.944572
v -0.981226 0.223764 0.983166
v -0.967207 -0.224872 -0.967207
v -0.998784 -0.224681 -0.966817
v -0.966890 -0.224681 -0.998894
v -0.990395 -0.224872 -0.967207
v -0.986140 -0.224872 -0.986140
v -0.988445 -0.224681 -0.989255
v -0.967207 -0.224872 -0.990395
v -0.962898 0.234719 -0.929587
v -0.928058 0.234621 -0.962782
v -0.963004 0.223898 -0.990120
v -0.993257 0.224115 -0.963389
v -0.946945 0.235923 -0.949316
v -0.970531 0.228572 -0.969954
v -0.944766 0.228810 -0.979918
v -0.983475 0.223817 -0.981539
v -0.980731 0.229057 -0.946610
v 0.967207 -0.224872 0.967207
v 0.998784 -0.224681 0.966817
v 0.966890 -0.224681 0.998894
v 0.990395 -0.224872 0.967207
v 0.986140 -0.224872 0.986140
v 0.988445 -0.224681 0.989255
v 0.967207 -0.224872 0.990395
v 0.960820 0.233811 0.927234
v 0.929009 0.233969 0.960987
v 0.963172 0.224071 0.992885
v 0.989720 0.223850 0.962842
v 0.947402 0.235014 0.945407
v 0.969626 0.228088 0.970408
v 0.946446 0.228623 0.980203
v 0.981226 0.223764 0.983166
v 0.979439 0.228332 0.944572
v 0.967207 -0.224872 -0.967207
v 0.966817 -0.224681 -0.998784
v 0.998894 -0.224681 -0.966890
v 0.967207 -0.224872 -0.990395
v 0.986140 -0.224872 -0.986140
v 0.989255 -0.224681 -0.988445
v 0.990395 -0.224872 -0.967207
v 0.928044 0.234921 -0.964914
v 0.962491 0.234355 -0.927487
v 0.990493 0.223895 -0.962810
v 0.963422 0.224096 -0.992732
v 0.945007 0.235833 -0.950895
v 0.967757 0.228533 -0.972846
v 0.980254 0.228673 -0.944453
v 0.980773 0.223798 -0.984170
v 0.945490 0.229167 -0.981601
v -0.951662 0.236702 0.916522
v -0.917869 0.236768 0.951531
v -0.904489 0.246772 0.904489
v -0.938081 0.237919 0.934920
v -0.928455 0.240625 0.925685
v -0.909748 0.242542 0.929652
v -0.929794 0.242587 0.910588
v -0.954337 0.237637 -0.918713
v -0.904489 0.246772 -0.904489
v -0.917756 0.237636 -0.954583
v -0.938530 0.242765 -0.914779
v -0.929568 0.242372 -0.930660
v -0.914579 0.242674 -0.939186
v -0.937456 0.238960 -0.940340
v 0.918006 0.237956 -0.956551
v 0.904489 0.246772 -0.904489
v 0.953860 0.237334 -0.917121
v 0.916033 0.242523 -0.941235
v 0.928378 0.242501 -0.930370
v 0.936351 0.242713 -0.913418
v 0.936376 0.238811 -0.940529
v 0.951662 0.236702 0.916522
v 0.904489 0.246772 0.904489
v 0.917869 0.236768 0.951531
v 0.930371 0.242789 0.910832
v 0.928455 0.240625 0.925685
v 0.909880 0.242666 0.929886
v 0.938081 0.237919 0.934920
vn -0.0000 0.0134 0.9999
vn -0.0005 0.9398 -0.3417
vn 0.3004 0.9538 0.0006
vn -0.3235 0.9462 0.0008
vn -0.9998 0.0202 -0.0000
vn -0.0000 1.0000 -0.0000
vn -0.0000 0.9589 0.2838
vn 0.0001 0.0196 -0.9998
vn 0.9998 0.0202 0.0001
vn -0.0000 -1.0000 -0.0000
vn -0.0102 -0.9997 0.0229
vn -0.0511 -0.9984 0.0235
vn -0.1297 0.9690 0.2104
vn -0.0990 0.9782 0.1824
vn -0.2056 0.9747 0.0873
vn -0.2415 0.9651 0.1009
vn -0.0231 -0.9997 -0.0052
vn -0.0102 -0.9997 -0.0229
vn -0.2063 0.9726 -0.1074
vn -0.0987 0.9677 -0.2319
vn -0.1108 0.9583 -0.2635
vn -0.2292 0.9634 -0.1393
vn 0.0231 -0.9997 0.0052
vn 0.0102 -0.9997 0.0229
vn 0.2056 0.9747 0.0873
vn 0.0990 0.9782 0.1824
vn 0.1091 0.9726 0.2051
vn 0.2431 0.9642 0.1057
vn 0.0052 -0.9997 -0.0231
vn 0.0229 -0.9997 -0.0102
vn 0.1204 0.9705 -0.2088
vn 0.2155 0.9714 -0.0997
vn 0.2463 0.9626 -0.1132
vn 0.1369 0.9601 -0.2440
vn -0.2203 0.9646 0.1449
vn -0.0969 0.9778 0.1856
vn -0.1291 0.9820 0.1381
vn -0.2703 0.9506 -0.1529
vn -0.0935 0.9926 -0.0773
vn -0.1399 0.9492 -0.2817
vn 0.1821 0.9485 -0.2594
vn 0.0806 0.9927 -0.0895
vn 0.2643 0.9546 -0.1372
vn 0.1971 0.9770 0.0809
vn 0.1186 0.9839 0.1339
vn 0.1529 0.9663 0.2069
vn -0.0228 -0.9997 -0.0000
vn -0.4081 0.0190 0.9127
vn -0.9080 0.0203 0.4184
vn -0.2818 0.9595 0.0006
vn -0.3984 0.9172 0.0009
vn -0.3866 0.0214 -0.9220
vn -0.8801 0.0145 -0.4745
vn -0.0000 -0.9997 -0.0228
vn -0.0005 0.9472 -0.3206
vn -0.0007 0.9014 -0.4329
vn 0.9100 0.0208 -0.4142
vn 0.4427 0.0154 -0.8966
vn 0.0228 -0.9997 -0.0000
vn 0.3052 0.9523 0.0006
vn 0.4234 0.9059 0.0003
vn 0.4742 0.0157 0.8803
vn 0.9224 0.0221 0.3856
vn -0.0000 -0.9997 0.0225
vn -0.0000 0.9634 0.2681
vn -0.0000 0.9412 0.3378
vn -0.1632 0.9866 -0.0000
vn -0.2596 0.9657 0.0009
vn -0.0000 0.9931 -0.1173
vn -0.0005 0.9504 -0.3109
vn 0.1265 0.9920 0.0004
vn 0.2939 0.9558 0.0009
vn -0.0001 0.9872 0.1596
vn -0.0001 0.9648 0.2629
vn 0.1200 0.9707 -0.2082
vn 0.0965 0.9780 0.1852
vn -0.0951 0.9794 0.1779
vn -0.0975 0.9695 -0.2249
vn -0.2112 0.9717 -0.1055
vn -0.0005 0.9388 -0.3446
vn 0.3270 0.9450 0.0007
vn -0.3000 0.9539 0.0009
vn -0.9999 0.0123 0.0018
vn -0.0014 0.0135 -0.9999
vn 0.9998 0.0187 0.0004
vn -0.0118 -0.9985 0.0526
vn -0.0231 -0.9997 0.0052
vn -0.1091 0.9726 0.2051
vn -0.0996 0.9782 0.1824
vn -0.2432 0.9642 0.1057
vn -0.0511 -0.9984 -0.0235
vn -0.0118 -0.9985 -0.0526
vn -0.2064 0.9722 -0.1104
vn -0.1148 0.9575 -0.2648
vn -0.2238 0.9675 -0.1179
vn 0.0511 -0.9984 0.0235
vn 0.0118 -0.9985 0.0526
vn 0.0996 0.9782 0.1824
vn 0.1297 0.9690 0.2104
vn 0.2415 0.9651 0.1009
vn 0.0235 -0.9984 -0.0511
vn 0.0526 -0.9985 -0.0118
vn 0.1099 0.9717 -0.2092
vn 0.2479 0.9617 -0.1172
vn 0.1224 0.9627 -0.2415
vn -0.1971 0.9770 0.0809
vn -0.1423 0.9688 0.2029
vn -0.1301 0.9817 0.1391
vn -0.2285 0.9615 -0.1528
vn -0.0744 0.9926 -0.0956
vn -0.1454 0.9643 -0.2215
vn 0.1826 0.9615 -0.2054
vn 0.1086 0.9921 -0.0635
vn 0.2660 0.9542 -0.1371
vn 0.2288 0.9587 0.1692
vn 0.1436 0.9765 0.1608
vn 0.0969 0.9778 0.1856
vn -0.4742 0.0157 0.8803
vn -0.9224 0.0221 0.3856
vn -0.3033 0.9529 0.0008
vn -0.3677 0.9299 0.0006
vn -0.4081 0.0202 -0.9127
vn -0.9081 0.0173 -0.4184
vn -0.0000 -0.9997 -0.0225
vn -0.0005 0.9452 -0.3265
vn -0.0005 0.9097 -0.4153
vn 0.9127 0.0212 -0.4081
vn 0.4184 0.0166 -0.9081
vn 0.0225 -0.9997 -0.0000
vn 0.2821 0.9594 0.0003
vn 0.3994 0.9168 0.0002
vn 0.4081 0.0190 0.9127
vn 0.9080 0.0203 0.4184
vn -0.1171 0.9931 0.0007
vn -0.3089 0.9511 0.0016
vn -0.0000 0.9934 -0.1149
vn -0.0002 0.9583 -0.2858
vn 0.1521 0.9884 -0.0000
vn 0.2747 0.9615 0.0007
vn -0.0000 0.9862 0.1658
vn -0.0000 0.9669 0.2552
vn 0.1154 0.9761 -0.1844
vn 0.0951 0.9794 0.1779
vn -0.0965 0.9780 0.1852
vn -0.2010 0.9741 -0.1031
vt 0.003899 0.009011
vt 0.329192 0.334302
vt 0.003899 0.334302
vt 0.989998 0.330793
vt 0.678179 0.328799
vt 0.988004 0.328799
vt 0.996976 0.323815
vt 0.994982 0.011996
vt 0.996976 0.010002
vt 0.669207 0.010002
vt 0.671201 0.321821
vt 0.669207 0.323815
vt 0.336991 0.009011
vt 0.662284 0.334302
vt 0.336991 0.334302
vt 0.680992 0.319008
vt 0.985191 0.014809
vt 0.985191 0.319008
vt 0.989998 0.003024
vt 0.678179 0.005018
vt 0.676185 0.003024
vt 0.003899 0.347207
vt 0.329192 0.672498
vt 0.003899 0.672498
vt 0.336991 0.672498
vt 0.662284 0.347207
vt 0.662284 0.672498
vt 0.670082 0.337716
vt 0.666899 0.334532
vt 0.670082 0.333817
vt 0.333092 0.334296
vt 0.329192 0.338196
vt 0.333807 0.337478
vt 0.333092 0.334296
vt 0.329192 0.009011
vt 0.331398 0.003966
vt 0.333092 0.009006
vt 0.672336 0.006153
vt 0.673315 0.000000
vt 0.666183 0.007132
vt 0.334785 0.003966
vt 0.339861 0.004088
vt 0.995375 0.337716
vt 0.998559 0.334532
vt 0.999275 0.337716
vt 0.665468 0.337478
vt 0.662284 0.338196
vt 0.003899 0.676391
vt 0.000000 0.672492
vt 0.672336 0.327664
vt 0.666183 0.326685
vt 0.673315 0.333817
vt 0.676185 0.330793
vt 0.001693 0.342162
vt 0.006769 0.342283
vt 0.662284 0.009011
vt 0.664490 0.003966
vt 0.666183 0.009006
vt 0.670082 0.663009
vt 0.666899 0.666193
vt 0.666183 0.663009
vt 0.665468 0.675673
vt 0.662284 0.676391
vt 0.003899 0.338196
vt 0.000000 0.334296
vt 0.993847 0.006153
vt 1.000000 0.007132
vt 0.992868 0.000000
vt 0.001693 0.003966
vt 0.006769 0.004088
vt 0.664490 0.342162
vt 0.666183 0.347201
vt 0.995375 0.663009
vt 0.998559 0.666193
vt 0.995375 0.666908
vt 0.332376 0.675673
vt 0.329192 0.676391
vt 0.336991 0.676391
vt 0.333092 0.672492
vt 0.993847 0.327664
vt 0.992868 0.333817
vt 1.000000 0.326685
vt 0.336991 0.347207
vt 0.334785 0.342162
vt 0.339861 0.342283
vt 0.329192 0.347207
vt 0.331398 0.342162
vt 0.333092 0.347201
vt 0.671201 0.011996
vt 0.676351 0.010168
vt 0.675840 0.013402
vt 0.674330 0.008147
vt 0.679586 0.009657
vt 0.680992 0.014809
vt 0.675840 0.320414
vt 0.674330 0.325670
vt 0.676351 0.323648
vt 0.679586 0.324160
vt 0.986597 0.324160
vt 0.991853 0.325670
vt 0.989832 0.323649
vt 0.990343 0.320414
vt 0.994982 0.321821
vt 0.989832 0.010168
vt 0.991853 0.008147
vt 0.986597 0.009657
vt 0.990343 0.013403
vt 0.988004 0.005018
vt 0.995375 0.333817
vt 0.336991 0.338196
vt 0.333092 0.009006
vt 0.342731 0.000000
vt 0.659414 0.004088
vt 0.000000 0.347201
vt 0.999275 0.663009
vt 0.323452 0.338196
vt 0.009639 0.338196
vt 0.670082 0.666908
vt 0.656544 0.338196
vt 0.342731 0.338196
vt 0.659414 0.342283
vt 0.000000 0.009006
vt 0.666183 0.337716
vt 0.323452 0.000000
vt 0.009639 0.000000
vt 0.332376 0.337478
vt 0.326322 0.004088
vt 0.668239 0.002056
vt 0.666183 0.334296
vt 0.000716 0.675673
vt 0.668239 0.331761
vt 0.666183 0.672492
vt 0.000716 0.337478
vt 0.997944 0.002056
vt 0.333807 0.675673
vt 0.997944 0.331761
vt 0.326322 0.342283
vt 0.656544 0.000000
s 0
usemtl Material
f 42/1/1 2/2/1 35/3/1
f 56/4/2 74/5/2 79/6/2
f 57/7/3 86/8/3 40/9/3
f 10/10/4 72/11/4 24/12/4
f 11/13/5 18/14/5 3/15/5
f 73/16/6 87/17/6 80/18/6
f 41/19/7 66/20/7 9/21/7
f 26/22/8 50/23/8 19/24/8
f 51/25/9 43/26/9 34/27/9
f 1/28/10 5/29/10 7/30/10
f 6/31/11 4/32/11 2/2/11
f 3/15/12 5/33/12 6/34/12
f 8/35/13 13/36/13 16/37/13
f 14/38/14 12/39/14 9/21/14
f 15/40/15 14/38/15 10/10/15
f 11/13/16 13/41/16 15/42/16
f 17/43/10 21/44/10 23/45/10
f 18/14/17 21/46/17 20/47/17
f 23/48/18 22/49/18 19/24/18
f 28/50/19 32/51/19 24/12/19
f 30/52/20 28/50/20 25/53/20
f 26/22/21 29/54/21 30/55/21
f 27/56/22 29/57/22 31/58/22
f 33/59/10 37/60/10 39/61/10
f 34/27/23 37/62/23 36/63/23
f 39/64/24 38/65/24 35/3/24
f 44/66/25 48/67/25 40/9/25
f 46/68/26 44/66/26 41/19/26
f 42/1/27 45/69/27 46/70/27
f 43/26/28 45/71/28 47/72/28
f 49/73/10 53/74/10 55/75/10
f 50/23/29 53/76/29 52/77/29
f 55/78/30 54/79/30 51/25/30
f 60/80/31 64/81/31 56/4/31
f 62/82/32 60/80/32 57/7/32
f 58/83/33 61/84/33 62/85/33
f 59/86/34 61/87/34 63/88/34
f 65/89/35 69/90/35 71/91/35
f 66/20/36 69/90/36 68/92/36
f 71/91/37 70/93/37 67/94/37
f 75/95/38 78/96/38 72/11/38
f 73/16/39 76/97/39 75/95/39
f 78/96/40 77/98/40 74/5/40
f 82/99/41 85/100/41 79/6/41
f 80/18/42 83/101/42 82/99/42
f 85/100/43 84/102/43 81/103/43
f 86/8/44 90/104/44 92/105/44
f 91/106/45 89/107/45 87/17/45
f 88/108/46 90/104/46 91/106/46
f 1/28/10 20/109/10 17/43/10
f 7/110/47 18/14/47 20/47/47
f 2/2/48 16/37/48 6/31/48
f 16/111/49 3/15/49 6/34/49
f 10/112/50 32/113/50 15/42/50
f 15/42/51 27/56/51 11/13/51
f 19/24/52 31/114/52 26/22/52
f 31/58/53 18/14/53 27/56/53
f 17/43/10 52/115/10 49/73/10
f 23/48/54 50/23/54 52/77/54
f 56/116/55 30/55/55 25/117/55
f 30/55/56 59/86/56 26/22/56
f 51/25/57 63/88/57 58/83/57
f 63/88/58 50/23/58 59/86/58
f 49/73/10 36/118/10 33/59/10
f 55/78/59 34/27/59 36/63/59
f 40/119/60 62/85/60 57/120/60
f 48/121/61 58/83/61 62/85/61
f 35/3/62 47/122/62 42/1/62
f 47/72/63 34/27/63 43/26/63
f 33/59/10 4/123/10 1/28/10
f 39/64/64 2/2/64 4/32/64
f 9/124/65 46/70/65 41/125/65
f 46/70/66 8/35/66 42/1/66
f 73/16/67 71/91/67 67/94/67
f 71/91/68 72/11/68 65/89/68
f 80/18/69 77/98/69 73/16/69
f 77/98/70 79/6/70 74/5/70
f 80/18/71 89/107/71 84/102/71
f 89/107/72 81/103/72 84/102/72
f 87/17/73 70/93/73 91/106/73
f 70/93/74 88/108/74 91/106/74
f 79/6/75 60/80/75 56/4/75
f 85/100/32 57/7/32 60/80/32
f 88/108/76 44/66/76 92/105/76
f 92/105/25 40/9/25 86/8/25
f 66/20/77 14/38/77 9/21/77
f 68/92/15 10/10/15 14/38/15
f 74/5/78 28/50/78 78/96/78
f 28/50/79 72/11/79 78/96/79
f 49/73/10 1/28/10 17/43/10
f 42/1/1 8/35/1 2/2/1
f 56/4/80 25/53/80 74/5/80
f 57/7/81 81/103/81 86/8/81
f 10/10/82 65/89/82 72/11/82
f 11/13/83 27/56/83 18/14/83
f 73/16/6 67/94/6 87/17/6
f 41/19/7 88/108/7 66/20/7
f 26/22/84 59/86/84 50/23/84
f 51/25/85 58/83/85 43/26/85
f 1/28/10 4/123/10 5/29/10
f 6/31/86 5/126/86 4/32/86
f 3/15/87 7/110/87 5/33/87
f 8/35/88 12/127/88 13/36/88
f 14/38/89 13/128/89 12/39/89
f 15/40/15 13/128/15 14/38/15
f 11/13/90 16/111/90 13/41/90
f 17/43/10 20/109/10 21/44/10
f 18/14/91 22/129/91 21/46/91
f 23/48/92 21/130/92 22/49/92
f 28/50/93 29/131/93 32/51/93
f 30/52/20 29/131/20 28/50/20
f 26/22/94 31/114/94 29/54/94
f 27/56/95 32/113/95 29/57/95
f 33/59/10 36/118/10 37/60/10
f 34/27/96 38/132/96 37/62/96
f 39/64/97 37/133/97 38/65/97
f 44/66/25 45/134/25 48/67/25
f 46/68/98 45/134/98 44/66/98
f 42/1/99 47/122/99 45/69/99
f 43/26/100 48/121/100 45/71/100
f 49/73/10 52/115/10 53/74/10
f 50/23/101 54/79/101 53/76/101
f 55/78/102 53/135/102 54/79/102
f 60/80/103 61/136/103 64/81/103
f 62/82/32 61/136/32 60/80/32
f 58/83/104 63/88/104 61/84/104
f 59/86/105 64/137/105 61/87/105
f 65/89/106 68/92/106 69/90/106
f 66/20/107 70/93/107 69/90/107
f 71/91/108 69/90/108 70/93/108
f 75/95/109 76/97/109 78/96/109
f 73/16/110 77/98/110 76/97/110
f 78/96/111 76/97/111 77/98/111
f 82/99/112 83/101/112 85/100/112
f 80/18/113 84/102/113 83/101/113
f 85/100/114 83/101/114 84/102/114
f 86/8/115 89/107/115 90/104/115
f 91/106/116 90/104/116 89/107/116
f 88/108/117 92/105/117 90/104/117
f 1/28/10 7/30/10 20/109/10
f 7/110/47 3/15/47 18/14/47
f 2/2/118 8/35/118 16/37/118
f 16/111/119 11/13/119 3/15/119
f 10/112/120 24/138/120 32/113/120
f 15/42/121 32/113/121 27/56/121
f 19/24/122 22/49/122 31/114/122
f 31/58/123 22/129/123 18/14/123
f 17/43/10 23/45/10 52/115/10
f 23/48/124 19/24/124 50/23/124
f 56/116/125 64/137/125 30/55/125
f 30/55/126 64/137/126 59/86/126
f 51/25/127 54/79/127 63/88/127
f 63/88/128 54/79/128 50/23/128
f 49/73/10 55/75/10 36/118/10
f 55/78/129 51/25/129 34/27/129
f 40/119/130 48/121/130 62/85/130
f 48/121/131 43/26/131 58/83/131
f 35/3/132 38/65/132 47/122/132
f 47/72/133 38/132/133 34/27/133
f 33/59/10 39/61/10 4/123/10
f 39/64/64 35/3/64 2/2/64
f 9/124/65 12/127/65 46/70/65
f 46/70/66 12/127/66 8/35/66
f 73/16/134 75/95/134 71/91/134
f 71/91/135 75/95/135 72/11/135
f 80/18/136 82/99/136 77/98/136
f 77/98/137 82/99/137 79/6/137
f 80/18/138 87/17/138 89/107/138
f 89/107/139 86/8/139 81/103/139
f 87/17/140 67/94/140 70/93/140
f 70/93/141 66/20/141 88/108/141
f 79/6/142 85/100/142 60/80/142
f 85/100/32 81/103/32 57/7/32
f 88/108/143 41/19/143 44/66/143
f 92/105/25 44/66/25 40/9/25
f 66/20/144 68/92/144 14/38/144
f 68/92/15 65/89/15 10/10/15
f 74/5/20 25/53/20 28/50/20
f 28/50/145 24/12/145 72/11/145
f 49/73/10 33/59/10 1/28/10
